# xmcd CD database file
#
# Track frame offsets:
#	150
#	18990
#	34074
#	47436
#	64054
#	76215
#	91847
#	105518
#	116441
#	131643
#	143763
#	156319
#
# Disc length: 2299 seconds
#
# Revision: 1
# Processed by: cddbd v1.5.2PL0 Copyright (c) Steve Scherf et al.
# Submitted via: CDex 1.95
#
DISCID=8f08f90c
DTITLE=Markus Meier - Raindance
DYEAR=2010
DGENRE=Country
TTITLE0=The Beating Heart
TTITLE1=Red Dirt Country
TTITLE2=Black Dog
TTITLE3=Walk In The Rain
TTITLE4=Hurricane Lamp
TTITLE5=In My Boots
TTITLE6=Southern Sky (Heave Away)
TTITLE7=Rain Rain
TTITLE8=Rockabilly Roll
TTITLE9=Take It Like A Man
TTITLE10=Matilda Road
TTITLE11=Karherine By Night
EXTD=YEAR: 2010
EXTT0=
EXTT1=
EXTT2=
EXTT3=
EXTT4=
EXTT5=
EXTT6=
EXTT7=
EXTT8=
EXTT9=
EXTT10=
EXTT11=
PLAYORDER=
